<?xml version="1.0" encoding="utf-8"?>
<!-- Generator: Adobe Illustrator 18.1.1, SVG Export Plug-In . SVG Version: 6.00 Build 0)  -->
<svg version="1.1" xmlns="http://www.w3.org/2000/svg" xmlns:xlink="http://www.w3.org/1999/xlink" x="0px" y="0px"
	 viewBox="0 0 869.6 654.1" enable-background="new 0 0 869.6 654.1" xml:space="preserve">
<g id="color_dots">
</g>
<g id="pointer_box">
</g>
<g id="Banner_colors">
</g>
<g id="Squares">
	<g>
		<defs>
			<rect id="SVGID_7_" x="-257.8" y="54.4" width="237.8" height="548.1"/>
		</defs>
		<clipPath id="SVGID_2_">
			<use xlink:href="#SVGID_7_"  overflow="visible"/>
		</clipPath>
		
			<rect x="-222.9" y="90.5" clip-path="url(#SVGID_2_)" fill="#1B9CFA" stroke="#FFFFFF" stroke-width="10" stroke-miterlimit="10" width="465.5" height="465.5"/>
	</g>
	<rect x="61.9" y="90.5" fill="#E62319" stroke="#1B9CFA" stroke-width="10" width="589.4" height="465.5"/>
	
		<rect x="185.7" y="90.5" fill="#1B9CFA" stroke="#FFFFFF" stroke-width="13" stroke-miterlimit="10" width="465.5" height="465.5"/>
	<g>
		<defs>
			<rect id="SVGID_11_" x="616.8" y="54.4" width="252.8" height="548.1"/>
		</defs>
		<clipPath id="SVGID_4_">
			<use xlink:href="#SVGID_11_"  overflow="visible"/>
		</clipPath>
		
			<rect x="651.7" y="90.5" clip-path="url(#SVGID_4_)" fill="#FCC92E" stroke="#FFFFFF" stroke-width="13" stroke-miterlimit="10" width="465.5" height="465.5"/>
	</g>
	<g>
		<defs>
			<rect id="SVGID_13_" x="-2.8" y="54.4" width="195.6" height="548.1"/>
		</defs>
		<clipPath id="SVGID_6_">
			<use xlink:href="#SVGID_13_"  overflow="visible"/>
		</clipPath>
		
			<rect x="-279.8" y="90.5" clip-path="url(#SVGID_6_)" fill="#9D29BA" stroke="#FFFFFF" stroke-width="13" stroke-miterlimit="10" width="465.5" height="465.5"/>
	</g>
	<g>
		<circle opacity="0.5" fill="#FFFFFF" cx="418.2" cy="324" r="206"/>
		<circle fill="#FFFFFF" cx="418.2" cy="324" r="178"/>
	</g>
	<g>
		<defs>
			<rect id="SVGID_17_" x="886.8" y="54.4" width="195.6" height="548.1"/>
		</defs>
		<clipPath id="SVGID_8_">
			<use xlink:href="#SVGID_17_"  overflow="visible"/>
		</clipPath>
		
			<rect x="609.8" y="90.5" clip-path="url(#SVGID_8_)" fill="#1B9CFA" stroke="#FFFFFF" stroke-width="13" stroke-miterlimit="10" width="465.5" height="465.5"/>
	</g>
	<rect x="3.8" y="5.4" fill="none" stroke="#231F20" stroke-width="10" stroke-miterlimit="10" width="860.8" height="645.3"/>
	<g>
		<g>
			<path fill="#231F20" d="M623.7,402l-392.6,44.3c-6.6,0.7-12.5-4-13.3-10.6l-19.7-174.3c-0.7-6.6,4-12.5,10.6-13.3l392.6-44.3
				c6.6-0.7,12.5,4,13.3,10.6l19.7,174.3C635,395.3,630.3,401.2,623.7,402z"/>
		</g>
		<g>
			<path fill="#FFFFFF" d="M234.8,299.4c-1.7-14.8,7.5-26.2,22.9-28c5.7-0.6,9.7,0.3,11.8,1.2l1.4,12.8c-2.5-1.5-6.4-2.6-10.9-2.1
				c-7.6,0.9-12.1,6.2-11.2,14.5c0.9,8.2,6.4,12.5,14,11.6c4.5-0.5,8.5-2.1,10.7-4.5l1.4,12.8c-1.9,1.4-6.1,3.3-11.9,3.9
				C247.8,323.3,236.5,314.3,234.8,299.4z"/>
			<path fill="#FFFFFF" d="M277,270.3l13.8-1.6l4.2,37l15.4-1.7l1.3,11.2l-29.2,3.3L277,270.3z"/>
			<path fill="#FFFFFF" d="M310.6,290.9c-1.3-11.9,5.7-26.1,23.6-28.1c18-2,28,10.3,29.3,22.1c1.3,11.8-5.7,25.9-23.7,28
				C322,315,312,302.7,310.6,290.9z M349.3,286.6c-1-8.6-7.1-12.5-13.8-11.7c-6.6,0.7-11.7,5.8-10.7,14.5c1,8.6,7.1,12.3,13.7,11.6
				C345.2,300.2,350.3,295.2,349.3,286.6z"/>
			<path fill="#FFFFFF" d="M374.8,270.6l-11.9,1.3l-1.3-11.2l37.5-4.2l1.3,11.2l-11.9,1.3l4.2,37l-13.8,1.6L374.8,270.6z"/>
			<path fill="#FFFFFF" d="M403.5,256l13.8-1.6l2,18l17.3-2l-2-18l13.8-1.6l5.4,48.2l-13.8,1.6l-2.1-19l-17.3,2l2.1,19l-13.8,1.6
				L403.5,256z"/>
			<path fill="#FFFFFF" d="M456.7,250l13.8-1.6l5.4,48.2l-13.8,1.6L456.7,250z"/>
			<path fill="#FFFFFF" d="M478.9,247.5l12.6-1.4l18.5,18.6c2.9,2.9,5.4,6.1,6.8,8.1l0.3-0.2c-0.5-2.2-1.1-6.3-1.6-10.2l-2.1-18.8
				l13-1.5l5.4,48.2l-12.6,1.4l-18.5-18.6c-2.9-2.9-5.4-6.1-6.8-8.1l-0.3,0.2c0.5,2.2,1.1,6.3,1.6,10.2l2.1,18.8l-13,1.5
				L478.9,247.5z"/>
			<path fill="#FFFFFF" d="M535.3,265.5c-1.7-14.7,8.4-26.3,23.7-28c11-1.2,18.1,2.2,22.5,6.8l-9.6,9.6c-2.5-3.4-6.6-5.3-11.6-4.7
				c-7.2,0.8-12.2,5.5-11.2,14.8c1.1,9.3,7,12.8,14.2,12c6.3-0.7,9.9-4.4,10.5-7.9l-10.8,1.2l-1.2-10.5l25.3-2.8l0.4,3.3
				c1.8,16.3-7.6,26.7-22.9,28.4C549.1,289.4,537,280.5,535.3,265.5z"/>
			<path fill="#FFFFFF" d="M240.8,359.4c-1.3-11.9,5.7-26.1,23.6-28.1c18-2,28,10.3,29.3,22.1c1.3,11.8-5.7,25.9-23.7,28
				C252.1,383.4,242.1,371.2,240.8,359.4z M279.5,355c-1-8.7-7.1-12.5-13.8-11.7c-6.6,0.7-11.7,5.8-10.7,14.5
				c1,8.6,7.1,12.3,13.7,11.6C275.3,368.6,280.5,363.6,279.5,355z"/>
			<path fill="#FFFFFF" d="M297.3,328.5l18.3-2.1c12.5-1.4,20.5,5.1,21.5,14.7c1.1,9.6-5.2,17.6-17.7,19l-4.5,0.5l1.6,14.5
				l-13.8,1.6L297.3,328.5z M316,349.4c5.2-0.6,7.3-2.6,6.9-6.7c-0.5-4-3-5.6-8.2-5.1l-2.3,0.3l1.3,11.7L316,349.4z"/>
			<path fill="#FFFFFF" d="M350,333.9l-11.9,1.3l-1.3-11.2l37.5-4.2l1.3,11.2l-11.9,1.3l4.2,37l-13.8,1.6L350,333.9z"/>
			<path fill="#FFFFFF" d="M378.7,319.4l13.8-1.6l5.4,48.2l-13.8,1.6L378.7,319.4z"/>
			<path fill="#FFFFFF" d="M401.5,341.3c-1.3-11.9,5.7-26.1,23.6-28.1c18-2,28,10.3,29.3,22.1c1.3,11.8-5.7,25.9-23.7,28
				C412.9,365.3,402.9,353.1,401.5,341.3z M440.3,336.9c-1-8.6-7.1-12.5-13.8-11.7c-6.6,0.7-11.7,5.8-10.7,14.5
				c1,8.6,7.1,12.3,13.7,11.6C436.1,350.5,441.2,345.5,440.3,336.9z"/>
			<path fill="#FFFFFF" d="M458.1,310.4l12.6-1.4l18.5,18.6c2.9,2.9,5.4,6.1,6.8,8.1l0.3-0.2c-0.5-2.2-1.1-6.3-1.6-10.2l-2.1-18.8
				l13-1.5l5.4,48.2l-12.6,1.4l-18.5-18.6c-2.9-2.9-5.4-6.1-6.8-8.1l-0.3,0.2c0.5,2.2,1.1,6.3,1.6,10.2l2.1,18.8l-13,1.5
				L458.1,310.4z"/>
			<path fill="#FFFFFF" d="M526.9,302.7l15.2-1.7l23.3,46.2l-14.3,1.6l-3-6.7l-18.2,2.1l-1.4,7.2l-14,1.6L526.9,302.7z M543.3,331.5
				l-5-11.2c-1-2.2-2-5-2.5-7l-0.4,0c0,2.1-0.3,5-0.8,7.4l-2.4,12L543.3,331.5z"/>
			<path fill="#FFFFFF" d="M563.6,298.5l13.8-1.6l4.2,37l15.4-1.7l1.3,11.2l-29.2,3.3L563.6,298.5z"/>
		</g>
		<g>
			<path fill="#FFFFFF" d="M250.1,393.9l6.7-0.7c4.5-0.5,8.1,1.3,8.6,6c0.4,3.1-1,5-3.2,6.1c3.7,0.3,6.4,2.3,6.8,6.5
				c0.6,5.3-3,8.4-8.1,9l-7.7,0.9L250.1,393.9z M253.6,405.5l4.5-0.5c3.7-0.4,5.5-2.4,5.2-5.6c-0.4-3.2-2.6-4.7-6.3-4.3l-4.5,0.5
				L253.6,405.5z M255.2,419.5l5.3-0.6c4.6-0.5,6.9-3.1,6.4-6.9c-0.4-3.8-3.4-5.7-7.8-5.2l-5.3,0.6L255.2,419.5z"/>
			<path fill="#FFFFFF" d="M271.6,391.5l14.4-1.6l0.2,2l-12.2,1.4l1.1,9.9l11.8-1.3l0.2,2l-11.8,1.3l1.4,12l12.4-1.4l0.2,2
				l-14.6,1.6L271.6,391.5z"/>
			<path fill="#FFFFFF" d="M299.3,404.4l-10.9-14.8l2.5-0.3l9.2,12.8l6.2-14.6l2.4-0.3l-7.3,16.9l1.3,12l-2.1,0.2L299.3,404.4z"/>
			<path fill="#FFFFFF" d="M311.1,401.1c-0.9-8.2,4.3-15.1,12.7-16.1c8.3-0.9,15,4.6,15.9,12.8c0.9,8.2-4.3,15.1-12.7,16.1
				C318.7,414.9,312.1,409.3,311.1,401.1z M337.6,398.1c-0.8-7.1-6.4-11.9-13.6-11.1c-7.1,0.8-11.6,6.7-10.7,13.8
				c0.8,7.1,6.4,11.9,13.6,11.1C334,411.1,338.4,405.2,337.6,398.1z"/>
			<path fill="#FFFFFF" d="M343.1,382.7l0.5-0.1l24.5,21.9l-2.7-23.6l2.1-0.2l3.2,28.5l-0.5,0.1l-24.5-21.9l2.7,23.6l-2.1,0.2
				L343.1,382.7z"/>
			<path fill="#FFFFFF" d="M374.4,379.9l6.8-0.8c8.4-1,14.9,3.4,15.9,12.3c1,8.9-4.4,14.6-12.8,15.5l-6.8,0.8L374.4,379.9z
				 M379.4,405.4l4.5-0.5c7.1-0.8,12-5.3,11.1-13.3c-0.9-8-6.6-11.3-13.8-10.5l-4.5,0.5L379.4,405.4z"/>
			<path fill="#FFFFFF" d="M413.9,377.4l-8.4,0.9l-0.2-2l18.9-2.1l0.2,2l-8.4,0.9l2.9,25.8l-2.1,0.2L413.9,377.4z"/>
			<path fill="#FFFFFF" d="M427.9,373.8l2.1-0.2l1.3,11.8l16.6-1.9l-1.3-11.8l2.1-0.2l3.1,27.8l-2.1,0.2l-1.6-14l-16.6,1.9l1.6,14
				l-2.1,0.2L427.9,373.8z"/>
			<path fill="#FFFFFF" d="M455.5,370.7l2.1-0.2l3.1,27.8l-2.1,0.2L455.5,370.7z"/>
			<path fill="#FFFFFF" d="M464.5,392.5l1.6-1.3c1.6,2.3,4,4.6,7.7,4.1c3.6-0.4,6.2-3.1,5.7-6.7c-0.4-3.8-3.8-5-7.5-6.1
				c-3.7-1-7.1-2.7-7.6-6.6c-0.4-3.9,2.3-7.1,6.5-7.6c3.5-0.4,6.2,1.2,7.9,3.5l-1.6,1.4c-1.2-1.7-3.3-3.2-6.1-2.9
				c-3,0.3-4.9,2.5-4.6,5.3c0.4,3.2,3.1,4.3,6.1,5.1c4.1,1.1,8.4,2.8,8.9,7.7c0.5,4.6-2.7,8.4-7.6,8.9
				C469.6,397.8,466.3,395.5,464.5,392.5z"/>
			<path fill="#FFFFFF" d="M492.5,366.6l6.9-0.8c4.9-0.5,8.8,2,9.4,7c0.6,5-2.8,8.5-7.6,9l-4.8,0.5l1.3,11.7l-2.1,0.2L492.5,366.6z
				 M501,379.9c4.1-0.5,6.1-3.3,5.7-6.8c-0.4-3.5-3-5.8-7.1-5.4l-4.7,0.5l1.4,12.2L501,379.9z"/>
			<path fill="#FFFFFF" d="M512.1,378.4c-0.9-8.2,4.3-15.1,12.7-16.1c8.3-0.9,15,4.6,15.9,12.8c0.9,8.2-4.3,15.1-12.7,16.1
				C519.7,392.2,513,386.7,512.1,378.4z M538.5,375.4c-0.8-7.1-6.4-11.9-13.6-11.1c-7.1,0.8-11.6,6.7-10.7,13.8
				c0.8,7.1,6.4,11.9,13.6,11.1C534.9,388.5,539.3,382.6,538.5,375.4z"/>
			<path fill="#FFFFFF" d="M544.1,360.7l2.1-0.2l3.1,27.8l-2.1,0.2L544.1,360.7z"/>
			<path fill="#FFFFFF" d="M553,359l0.5-0.1l24.5,21.9l-2.7-23.6l2.1-0.2l3.2,28.5l-0.5,0.1l-24.5-21.9l2.7,23.6l-2.1,0.2L553,359z"
				/>
			<path fill="#FFFFFF" d="M589.7,357.6l-8.4,0.9l-0.2-2l18.9-2.1l0.2,2l-8.4,0.9l2.9,25.8l-2.1,0.2L589.7,357.6z"/>
		</g>
		<g>
			<circle fill="#FFFFFF" cx="218.7" cy="264" r="7.7"/>
		</g>
		<g>
			<circle fill="#FFFFFF" cx="596.8" cy="221.3" r="7.7"/>
		</g>
	</g>
</g>
<g id="images">
</g>
</svg>
