<?xml version="1.0" encoding="utf-8"?>
<!-- Generator: Adobe Illustrator 18.1.1, SVG Export Plug-In . SVG Version: 6.00 Build 0)  -->
<svg version="1.1" xmlns="http://www.w3.org/2000/svg" xmlns:xlink="http://www.w3.org/1999/xlink" x="0px" y="0px"
	 viewBox="0 0 869.6 654.1" enable-background="new 0 0 869.6 654.1" xml:space="preserve">
<g id="color_dots">
</g>
<g id="pointer_box">
</g>
<g id="Banner_colors">
</g>
<g id="Text">
	<g>
		<rect x="130" y="98.3" fill="#E62319" stroke="#FFFFFF" stroke-width="10" width="87.6" height="87.6"/>
		<rect x="217.6" y="98.3" fill="#AD2CA5" stroke="#FFFFFF" stroke-width="10" stroke-miterlimit="10" width="87.6" height="87.6"/>
		
			<rect x="217.6" y="185.9" fill="#0A80F9" stroke="#FFFFFF" stroke-width="10" stroke-miterlimit="10" width="87.6" height="87.6"/>
		<rect x="217.6" y="273.6" fill="#FCC92E" stroke="#FFFFFF" stroke-width="10" width="87.6" height="87.6"/>
		<rect x="217.6" y="361" fill="#00D03D" stroke="#FFFFFF" stroke-width="10" stroke-miterlimit="10" width="87.6" height="87.6"/>
		
			<rect x="217.6" y="448.8" fill="#ad2ca5" stroke="#FFFFFF" stroke-width="10" stroke-miterlimit="10" width="87.6" height="87.6"/>
		
			<rect x="305.2" y="448.8" fill="#fcc92e" stroke="#FFFFFF" stroke-width="10" stroke-miterlimit="10" width="87.6" height="87.6"/>
		<rect x="392.5" y="448.8" fill="#E62319" stroke="#FFFFFF" stroke-width="10" width="87.6" height="87.6"/>
		
			<rect x="480.2" y="448.8" fill="#AD2CA5" stroke="#FFFFFF" stroke-width="10" stroke-miterlimit="10" width="87.6" height="87.6"/>
		
			<rect x="480.2" y="361.7" fill="#0A80F9" stroke="#FFFFFF" stroke-width="10" stroke-miterlimit="10" width="87.6" height="87.6"/>
		<rect x="567.6" y="361.7" fill="#FCC92E" stroke="#FFFFFF" stroke-width="10" width="87.6" height="87.6"/>
		
			<rect x="655.2" y="361.7" fill="#00D03D" stroke="#FFFFFF" stroke-width="10" stroke-miterlimit="10" width="87.6" height="87.6"/>
		<circle stroke="#FFFFFF" stroke-width="8" stroke-miterlimit="10" cx="86.6" cy="141.1" r="62.7"/>
		<circle stroke="#FFFFFF" stroke-width="8" stroke-miterlimit="10" cx="787.6" cy="405.1" r="62.7"/>
		<g>
			<path fill="#F8F8F8" stroke="#FFFFFF" stroke-miterlimit="10" d="M42.9,150l3-4.1c1.1,1.3,2.9,2.5,5,2.5c1.6,0,2.5-0.7,2.5-1.9
				c0-1.5-1.4-1.9-3.7-2.6c-3.1-0.9-5.9-2.6-5.9-6.3c0-4.1,3.3-6.8,8-6.8c3.3,0,5.7,1,7.3,2.5l-2.8,4.1c-0.9-1-2.4-1.9-4.2-1.9
				c-1.6,0-2.3,0.6-2.3,1.5c0,1.3,1.6,1.7,3.4,2.3c3.5,1.1,6.2,2.7,6.2,6.6c0,4.1-3,7.2-8.3,7.2C47.3,153.1,44.2,151.4,42.9,150z"/>
			<path fill="#F8F8F8" stroke="#FFFFFF" stroke-miterlimit="10" d="M65.6,136.2h-5.3v-5H77v5h-5.3v16.5h-6.1V136.2z"/>
			<path fill="#F8F8F8" stroke="#FFFFFF" stroke-miterlimit="10" d="M82.8,131.2h6.8l8,21.5h-6.4l-1-3.1H82l-1,3.1h-6.2L82.8,131.2z
				 M88.5,144.7l-1.7-5.2c-0.3-1-0.6-2.3-0.7-3.2H86c-0.1,0.9-0.4,2.2-0.7,3.2l-1.7,5.2H88.5z"/>
			<path fill="#F8F8F8" stroke="#FFFFFF" stroke-miterlimit="10" d="M99.1,131.2h8.9c4.6,0,8.4,2,8.4,7.2c0,2.5-1.4,4.7-4.3,5.9
				l5.6,8.3h-7l-4.5-7.3h-0.9v7.3h-6.1V131.2z M107,140.8c2,0,3.1-0.8,3.1-2.3s-1-2.3-3.1-2.3h-1.8v4.6H107z"/>
			<path fill="#F8F8F8" stroke="#FFFFFF" stroke-miterlimit="10" d="M122.6,136.2h-5.3v-5h16.7v5h-5.3v16.5h-6.1V136.2z"/>
		</g>
		<g>
			<path fill="#F8F8F8" stroke="#FFFFFF" stroke-miterlimit="10" d="M737.2,396.7h13.1v5h-7v3.9h6.8v5h-6.8v7.5h-6.1V396.7z"/>
			<path fill="#F8F8F8" stroke="#FFFFFF" stroke-miterlimit="10" d="M752.8,396.7h6.1v21.5h-6.1V396.7z"/>
			<path fill="#F8F8F8" stroke="#FFFFFF" stroke-miterlimit="10" d="M762.7,396.7h5.6l7.2,9.1c1.1,1.4,2.1,3,2.6,3.9l0.1-0.1
				c-0.1-1-0.2-2.8-0.2-4.6v-8.4h5.8v21.5h-5.6l-7.2-9.1c-1.1-1.4-2.1-3-2.6-3.9l-0.1,0.1c0.1,1,0.2,2.8,0.2,4.6v8.4h-5.8V396.7z"/>
			<path fill="#F8F8F8" stroke="#FFFFFF" stroke-miterlimit="10" d="M787.5,396.7h6.1v21.5h-6.1V396.7z"/>
			<path fill="#F8F8F8" stroke="#FFFFFF" stroke-miterlimit="10" d="M795.8,415.5l3-4.1c1.1,1.3,2.9,2.5,5,2.5
				c1.6,0,2.5-0.7,2.5-1.9c0-1.5-1.4-1.9-3.7-2.6c-3.1-0.9-5.9-2.6-5.9-6.3c0-4.1,3.3-6.8,8-6.8c3.3,0,5.7,1,7.3,2.5l-2.8,4.1
				c-0.9-1-2.4-1.9-4.2-1.9c-1.6,0-2.3,0.6-2.3,1.5c0,1.3,1.6,1.7,3.4,2.3c3.5,1.1,6.2,2.7,6.2,6.6c0,4.1-3,7.2-8.3,7.2
				C800.1,418.6,797.1,416.9,795.8,415.5z"/>
			<path fill="#F8F8F8" stroke="#FFFFFF" stroke-miterlimit="10" d="M815,396.7h6.1v8h7.7v-8h6.1v21.5h-6.1v-8.5h-7.7v8.5H815V396.7
				z"/>
		</g>
	</g>
	<g>
		<circle opacity="0.5" fill="#F8F8F8" cx="183.3" cy="142.9" r="24.9"/>
		<circle fill="#F8F8F8" cx="183.3" cy="142.9" r="21.5"/>
	</g>
	<g>
		<circle opacity="0.5" fill="#F8F8F8" cx="261" cy="142.9" r="24.9"/>
		<circle fill="#F8F8F8" cx="261" cy="142.9" r="21.5"/>
	</g>
	<g>
		<circle opacity="0.5" fill="#F8F8F8" cx="261" cy="230.3" r="24.9"/>
		<circle fill="#F8F8F8" cx="261" cy="230.3" r="21.5"/>
	</g>
	<g>
		<circle opacity="0.5" fill="#F8F8F8" cx="261" cy="317.6" r="24.9"/>
		<circle fill="#F8F8F8" cx="261" cy="317.6" r="21.5"/>
	</g>
	<g>
		<circle opacity="0.5" fill="#F8F8F8" cx="261" cy="405.6" r="24.9"/>
		<circle fill="#F8F8F8" cx="261" cy="405.6" r="21.5"/>
	</g>
	<g>
		<circle opacity="0.5" fill="#F8F8F8" cx="261" cy="493.1" r="24.9"/>
		<circle fill="#F8F8F8" cx="261" cy="493.1" r="21.5"/>
	</g>
	<g>
		<circle opacity="0.5" fill="#F8F8F8" cx="349.5" cy="493.1" r="24.9"/>
		<circle fill="#F8F8F8" cx="349.5" cy="493.1" r="21.5"/>
	</g>
	<g>
		<circle opacity="0.5" fill="#F8F8F8" cx="436.5" cy="493.1" r="24.9"/>
		<circle fill="#F8F8F8" cx="436.5" cy="493.1" r="21.5"/>
	</g>
	<g>
		<circle opacity="0.5" fill="#F8F8F8" cx="524" cy="493.1" r="24.9"/>
		<circle fill="#F8F8F8" cx="524" cy="493.1" r="21.5"/>
	</g>
	<g>
		<circle opacity="0.5" fill="#F8F8F8" cx="524" cy="405.6" r="24.9"/>
		<circle fill="#F8F8F8" cx="524" cy="405.6" r="21.5"/>
	</g>
	<g>
		<circle opacity="0.5" fill="#F8F8F8" cx="612" cy="405.6" r="24.9"/>
		<circle fill="#F8F8F8" cx="612" cy="405.6" r="21.5"/>
	</g>
	<g>
		<circle opacity="0.5" fill="#F8F8F8" cx="690" cy="405.6" r="24.9"/>
		<circle fill="#F8F8F8" cx="690" cy="405.6" r="21.5"/>
	</g>
</g>
<g id="images">
</g>
<g id="Blk_Lines">
</g>
</svg>
