<?xml version="1.0" encoding="utf-8"?>
<!-- Generator: Adobe Illustrator 18.1.1, SVG Export Plug-In . SVG Version: 6.00 Build 0)  -->
<svg version="1.1" xmlns="http://www.w3.org/2000/svg" xmlns:xlink="http://www.w3.org/1999/xlink" x="0px" y="0px"
	 viewBox="0 0 869.6 654.1" enable-background="new 0 0 869.6 654.1" xml:space="preserve">
<g id="color_dots">
</g>
<g id="pointer_box">
</g>
<g id="Banner_colors">
</g>
<g id="Squares">
	<g>
		<defs>
			<rect id="SVGID_27_" x="-272.8" y="54.4" width="252.8" height="548.1"/>
		</defs>
		<clipPath id="SVGID_2_">
			<use xlink:href="#SVGID_27_"  overflow="visible"/>
		</clipPath>
		
			<rect x="-237.9" y="90.5" clip-path="url(#SVGID_2_)" fill="#E62319" stroke="#FFFFFF" stroke-width="14" width="465.5" height="465.5"/>
	</g>
	<rect x="61.9" y="90.5" fill="#E62319" stroke="#1B9CFA" stroke-width="10" width="589.4" height="465.5"/>
	
		<rect x="185.7" y="90.5" fill="#FCC92E" stroke="#FFFFFF" stroke-width="13" stroke-miterlimit="10" width="465.5" height="465.5"/>
	<g>
		<defs>
			<rect id="SVGID_31_" x="616.8" y="54.4" width="252.8" height="548.1"/>
		</defs>
		<clipPath id="SVGID_4_">
			<use xlink:href="#SVGID_31_"  overflow="visible"/>
		</clipPath>
		
			<rect x="651.7" y="90.5" clip-path="url(#SVGID_4_)" fill="#00D03D" stroke="#FFFFFF" stroke-width="13" stroke-miterlimit="10" width="465.5" height="465.5"/>
	</g>
	<g>
		<defs>
			<rect id="SVGID_33_" x="-2.8" y="54.4" width="195.6" height="548.1"/>
		</defs>
		<clipPath id="SVGID_6_">
			<use xlink:href="#SVGID_33_"  overflow="visible"/>
		</clipPath>
		
			<rect x="-279.8" y="90.5" clip-path="url(#SVGID_6_)" fill="#1B9CFA" stroke="#FFFFFF" stroke-width="13" stroke-miterlimit="10" width="465.5" height="465.5"/>
	</g>
	<g>
		<circle opacity="0.5" fill="#FFFFFF" cx="418.2" cy="324" r="206"/>
		<circle fill="#FFFFFF" cx="418.2" cy="324" r="178"/>
	</g>
	<rect x="3.8" y="5.4" fill="none" stroke="#231F20" stroke-width="10" stroke-miterlimit="10" width="860.8" height="645.3"/>
	<rect x="61.9" y="90.5" fill="#E62319" stroke="#1B9CFA" stroke-width="10" width="589.4" height="465.5"/>
	<rect x="185.7" y="90.5" fill="#E62319" stroke="#FFFFFF" stroke-width="14" width="465.5" height="465.5"/>
	<g>
		<defs>
			<rect id="SVGID_59_" x="616.8" y="54.4" width="252.8" height="548.1"/>
		</defs>
		<clipPath id="SVGID_8_">
			<use xlink:href="#SVGID_59_"  overflow="visible"/>
		</clipPath>
		
			<rect x="651.7" y="90.5" clip-path="url(#SVGID_8_)" fill="#AD2CA5" stroke="#FFFFFF" stroke-width="14" stroke-miterlimit="10" width="465.5" height="465.5"/>
	</g>
	<g>
		<defs>
			<rect id="SVGID_61_" x="-2.8" y="54.4" width="195.6" height="548.1"/>
		</defs>
		<clipPath id="SVGID_10_">
			<use xlink:href="#SVGID_61_"  overflow="visible"/>
		</clipPath>
		
			<rect x="-279.8" y="90.5" clip-path="url(#SVGID_10_)" fill="#FCC92E" stroke="#FFFFFF" stroke-width="14" width="465.5" height="465.5"/>
	</g>
	<circle opacity="0.5" fill="#FFFFFF" cx="418.2" cy="324" r="206"/>
	<circle fill="#FFFFFF" cx="418.2" cy="324" r="178"/>
	<rect x="3.8" y="5.4" fill="none" stroke="#231F20" stroke-width="10" stroke-miterlimit="10" width="860.8" height="645.3"/>
</g>
<g id="images">
	<g>
		<g>
			
				<path fill-rule="evenodd" clip-rule="evenodd" fill="#FFFFFF" stroke="#FFFFFF" stroke-width="14" stroke-linecap="round" stroke-linejoin="round" stroke-miterlimit="10" d="
				M611.1,321c0,0-9.6-6.8-8.6-21.3c0.6-9.3,9-20.9-1.4-39.6c-11-19.7-25.4-23-25.4-23s1-3.5,2.8-3c1.8,0.2,15.5,5.7,25.5,24.2
				c10.5,19.4,2.7,33.2,1.3,41c-1.9,10.9,8.2,20.6,8.2,20.6C614.1,322.5,611.1,321,611.1,321z"/>
			
				<path fill-rule="evenodd" clip-rule="evenodd" fill="#FFFFFF" stroke="#FFFFFF" stroke-width="14" stroke-linecap="round" stroke-linejoin="round" stroke-miterlimit="10" d="
				M556.8,347.3l30.1-46.5c6.2-4.6,8.5-13,5.1-20.2l-39.9-84.9c-3.2-6.7-10.3-10.3-17.3-9.3l0-0.1l-56.1-1.8l0.1,0.3
				c-2.4,0-4.7,0.5-7,1.5L224.5,302.7c-8.2,3.9-11.7,13.7-7.9,21.9L281,461.4c3.9,8.2,13.7,11.8,21.9,7.9L550.2,353
				C553,351.7,555.2,349.7,556.8,347.3z M541.9,255.2c-2.1-4.6-0.2-10,4.4-12.1c4.6-2.1,10-0.2,12.1,4.4c2.1,4.6,0.2,10-4.4,12.1
				C549.5,261.7,544.1,259.7,541.9,255.2z"/>
			
				<path fill-rule="evenodd" clip-rule="evenodd" fill="#FFFFFF" stroke="#FFFFFF" stroke-width="14" stroke-linecap="round" stroke-linejoin="round" stroke-miterlimit="10" d="
				M566.7,243.5c-4.3-9.1-15.2-13.1-24.3-8.8c-9.1,4.3-13,15.2-8.7,24.3c4.3,9.1,15.2,13.1,24.3,8.8
				C567.1,263.5,571,252.7,566.7,243.5z M541.9,255.2c-2.1-4.6-0.2-10,4.4-12.1c4.6-2.1,10-0.2,12.1,4.4c2.1,4.6,0.2,10-4.4,12.1
				C549.5,261.7,544.1,259.7,541.9,255.2z"/>
			
				<path fill-rule="evenodd" clip-rule="evenodd" fill="#FFFFFF" stroke="#FFFFFF" stroke-width="14" stroke-linecap="round" stroke-linejoin="round" stroke-miterlimit="10" d="
				M621,313.3c-0.5-0.5-10.8-5.8-11.4-20.2c-0.4-9.2,7.6-20.9-5-38.3c-13.3-18.3-28.8-17.7-28.8-17.7c-1.9-0.9-0.7-3.5,2.4-2.9
				c1.2,0.1,14.9-0.5,29.1,18.4c13.3,17.8,5.5,31,5.2,40.3c-0.4,12.7,11.1,19.7,11.1,19.7C623.9,315.3,622.1,314,621,313.3z"/>
			
				<path fill-rule="evenodd" clip-rule="evenodd" fill="#FFFFFF" stroke="#FFFFFF" stroke-width="14" stroke-linecap="round" stroke-linejoin="round" stroke-miterlimit="10" d="
				M559.2,253.3c0.2-0.5,0.2-1.4,0.2-2.3c-1-0.7-1.7-1.7-2.2-2.9c-2.1-4.5,0.6-10.1,6-12.7c5.4-2.6,11.5-1,13.6,3.4
				c1.2,2.5,0.8,5.3-0.6,7.8l2.5,5.4c4-4.4,5.4-10.4,3-15.5c-3.3-7.1-12.6-9.7-20.8-5.9c-8.1,3.8-12,12.7-8.7,19.7
				c1.2,2.5,3.2,4.5,5.6,5.8C558.4,255.6,558.9,254.2,559.2,253.3z"/>
		</g>
		<g>
			<path fill-rule="evenodd" clip-rule="evenodd" fill="#231F20" d="M611.1,321c0,0-9.6-6.8-8.6-21.3c0.6-9.3,9-20.9-1.4-39.6
				c-11-19.7-25.4-23-25.4-23s1-3.5,2.8-3c1.8,0.2,15.5,5.7,25.5,24.2c10.5,19.4,2.7,33.2,1.3,41c-1.9,10.9,8.2,20.6,8.2,20.6
				C614.1,322.5,611.1,321,611.1,321z"/>
			<path fill-rule="evenodd" clip-rule="evenodd" fill="#231F20" d="M556.8,347.3l30.1-46.5c6.2-4.6,8.5-13,5.1-20.2l-39.9-84.9
				c-3.2-6.7-10.3-10.3-17.3-9.3l0-0.1l-56.1-1.8l0.1,0.3c-2.4,0-4.7,0.5-7,1.5L224.5,302.7c-8.2,3.9-11.7,13.7-7.9,21.9L281,461.4
				c3.9,8.2,13.7,11.8,21.9,7.9L550.2,353C553,351.7,555.2,349.7,556.8,347.3z M541.9,255.2c-2.1-4.6-0.2-10,4.4-12.1
				c4.6-2.1,10-0.2,12.1,4.4c2.1,4.6,0.2,10-4.4,12.1C549.5,261.7,544.1,259.7,541.9,255.2z"/>
			<path fill-rule="evenodd" clip-rule="evenodd" fill="#E62319" d="M566.7,243.5c-4.3-9.1-15.2-13.1-24.3-8.8
				c-9.1,4.3-13,15.2-8.7,24.3c4.3,9.1,15.2,13.1,24.3,8.8C567.1,263.5,571,252.7,566.7,243.5z M541.9,255.2
				c-2.1-4.6-0.2-10,4.4-12.1c4.6-2.1,10-0.2,12.1,4.4c2.1,4.6,0.2,10-4.4,12.1C549.5,261.7,544.1,259.7,541.9,255.2z"/>
			<path fill-rule="evenodd" clip-rule="evenodd" fill="#231F20" d="M621,313.3c-0.5-0.5-10.8-5.8-11.4-20.2
				c-0.4-9.2,7.6-20.9-5-38.3c-13.3-18.3-28.8-17.7-28.8-17.7c-1.9-0.9-0.7-3.5,2.4-2.9c1.2,0.1,14.9-0.5,29.1,18.4
				c13.3,17.8,5.5,31,5.2,40.3c-0.4,12.7,11.1,19.7,11.1,19.7C623.9,315.3,622.1,314,621,313.3z"/>
			<path fill-rule="evenodd" clip-rule="evenodd" fill="#231F20" d="M559.2,253.3c0.2-0.5,0.2-1.4,0.2-2.3c-1-0.7-1.7-1.7-2.2-2.9
				c-2.1-4.5,0.6-10.1,6-12.7c5.4-2.6,11.5-1,13.6,3.4c1.2,2.5,0.8,5.3-0.6,7.8l2.5,5.4c4-4.4,5.4-10.4,3-15.5
				c-3.3-7.1-12.6-9.7-20.8-5.9c-8.1,3.8-12,12.7-8.7,19.7c1.2,2.5,3.2,4.5,5.6,5.8C558.4,255.6,558.9,254.2,559.2,253.3z"/>
		</g>
		<g>
			<path fill="#FFFFFF" d="M292.8,404.4l4.3-15.2c6.3,3.6,15.1,5.7,23.5,1.8c7-3.3,10.1-9,7.2-15.4c-3.3-7.1-10.6-6.4-20.9-5.3
				c-12,1.2-24.1,0.7-30.2-12.3c-6.3-13.4-0.1-27.4,16.3-35.1c11.5-5.4,21.4-4.6,28.7-1.2l-4,15.1c-5.4-2.5-11.7-3.7-18.6-0.4
				c-6.6,3.1-8.7,7.8-6.5,12.5c3,6.3,10.8,4.8,18.2,4.1c14.3-1.4,26.5-0.4,32.9,13.3c6.7,14.2,1.4,29.5-16.3,37.8
				C313.9,410.4,301,409,292.8,404.4z"/>
			<path fill="#FFFFFF" d="M348.6,298.6l17.1-8.1l66.1,62.5l-17.5,8.2l-12.9-12.7l-31.2,14.7l1.6,18.1l-17,8L348.6,298.6z
				 M390.6,337.3L375,321.8c-2-2-9.1-9.3-10.4-11.4l-0.4,0.2c0.7,2.3,1.9,12.5,2.1,15.3l2,21.9L390.6,337.3z"/>
			<path fill="#FFFFFF" d="M400.6,274.1l16.6-7.8l29.6,62.9l24.7-11.6l6.5,13.8l-41.3,19.4L400.6,274.1z"/>
			<path fill="#FFFFFF" d="M449.9,251l44.2-20.8l6.3,13.4l-27.6,13l7.9,16.7l27-12.7l6.3,13.4l-27,12.7l9.2,19.7l28.5-13.4l6.3,13.4
				l-45.1,21.2L449.9,251z"/>
		</g>
	</g>
</g>
</svg>
