<?xml version="1.0" encoding="utf-8"?>
<!-- Generator: Adobe Illustrator 18.1.1, SVG Export Plug-In . SVG Version: 6.00 Build 0)  -->
<svg version="1.1" xmlns="http://www.w3.org/2000/svg" xmlns:xlink="http://www.w3.org/1999/xlink" x="0px" y="0px"
	 viewBox="0 0 869.6 654.1" enable-background="new 0 0 869.6 654.1" xml:space="preserve">
<g id="color_dots">
</g>
<g id="pointer_box">
</g>
<g id="Banner_colors">
</g>
<g id="Squares" display="none">
	<rect x="61.9" y="90.5" display="inline" fill="#E62319" stroke="#1B9CFA" stroke-width="10" width="589.4" height="465.5"/>
	
		<rect x="185.7" y="90.5" display="inline" fill="#FCC92E" stroke="#FFFFFF" stroke-width="13" stroke-miterlimit="10" width="465.5" height="465.5"/>
	<g display="inline">
		<defs>
			<rect id="SVGID_35_" x="616.8" y="54.4" width="252.8" height="548.1"/>
		</defs>
		<clipPath id="SVGID_2_">
			<use xlink:href="#SVGID_35_"  overflow="visible"/>
		</clipPath>
		
			<rect x="651.7" y="90.5" clip-path="url(#SVGID_2_)" fill="#00D03D" stroke="#FFFFFF" stroke-width="13" stroke-miterlimit="10" width="465.5" height="465.5"/>
	</g>
	<g display="inline">
		<defs>
			<rect id="SVGID_37_" x="-2.8" y="54.4" width="195.6" height="548.1"/>
		</defs>
		<clipPath id="SVGID_4_">
			<use xlink:href="#SVGID_37_"  overflow="visible"/>
		</clipPath>
		
			<rect x="-279.8" y="90.5" clip-path="url(#SVGID_4_)" fill="#1B9CFA" stroke="#FFFFFF" stroke-width="13" stroke-miterlimit="10" width="465.5" height="465.5"/>
	</g>
	<g display="inline">
		<circle opacity="0.5" fill="#FFFFFF" cx="418.2" cy="324" r="206"/>
		<circle fill="#FFFFFF" cx="418.2" cy="324" r="178"/>
	</g>
	
		<rect x="3.8" y="5.4" display="inline" fill="none" stroke="#231F20" stroke-width="10" stroke-miterlimit="10" width="860.8" height="645.3"/>
	<rect x="61.9" y="90.5" display="inline" fill="#E62319" stroke="#1B9CFA" stroke-width="10" width="589.4" height="465.5"/>
	
		<rect x="185.7" y="90.5" display="inline" fill="#AD2CA5" stroke="#FFFFFF" stroke-width="14" stroke-miterlimit="10" width="465.5" height="465.5"/>
	<g display="inline">
		<defs>
			<rect id="SVGID_39_" x="616.8" y="54.4" width="252.8" height="548.1"/>
		</defs>
		<clipPath id="SVGID_6_">
			<use xlink:href="#SVGID_39_"  overflow="visible"/>
		</clipPath>
		
			<rect x="651.7" y="90.5" clip-path="url(#SVGID_6_)" fill="#0A80F9" stroke="#FFFFFF" stroke-width="14" stroke-miterlimit="10" width="465.5" height="465.5"/>
	</g>
	<g display="inline">
		<defs>
			<rect id="SVGID_41_" x="-2.8" y="54.4" width="195.6" height="548.1"/>
		</defs>
		<clipPath id="SVGID_8_">
			<use xlink:href="#SVGID_41_"  overflow="visible"/>
		</clipPath>
		
			<rect x="-279.8" y="90.5" clip-path="url(#SVGID_8_)" fill="#E62319" stroke="#FFFFFF" stroke-width="14" width="465.5" height="465.5"/>
	</g>
	<circle display="inline" opacity="0.5" fill="#FFFFFF" cx="418.2" cy="324" r="206"/>
	<circle display="inline" fill="#FFFFFF" cx="418.2" cy="324" r="178"/>
	
		<rect x="3.8" y="5.4" display="inline" fill="none" stroke="#231F20" stroke-width="10" stroke-miterlimit="10" width="860.8" height="645.3"/>
	<g display="inline">
		<defs>
			<rect id="SVGID_63_" x="967.4" y="126.5" width="356" height="397.5"/>
		</defs>
		<clipPath id="SVGID_10_">
			<use xlink:href="#SVGID_63_"  overflow="visible"/>
		</clipPath>
		<g clip-path="url(#SVGID_10_)">
			<circle opacity="0.5" fill="#FFFFFF" cx="1003.8" cy="322.4" r="144.5"/>
		</g>
	</g>
</g>
<g id="images">
	<g>
		<path fill="#AD2CA5" d="M281.9,284.9H331v18.7h-26.1v14.8h25.7V337h-25.7v28.3h-23V284.9z"/>
		<path fill="#AD2CA5" d="M338.8,308.7h20.4v9.1h0.2c3-5.6,7.8-10.4,15.8-10.4c1.7,0,3.4,0.2,4.9,0.7v19.2c-1.8-0.6-4.6-0.9-6.9-0.9
			c-7.9,0-12.7,3.9-12.7,12v26.9h-21.8V308.7z"/>
		<path fill="#AD2CA5" d="M385.2,292.7c0-6.8,5.5-11.9,12.6-11.9c7.1,0,12.6,5.2,12.6,11.9c0,6.8-5.5,11.9-12.6,11.9
			C390.7,304.6,385.2,299.4,385.2,292.7z M386.9,308.7h21.8v56.6h-21.8V308.7z"/>
		<path fill="#AD2CA5" d="M420.7,381.3l8.5-14.8c3.6,2.7,8.7,5,15.7,5c7.2,0,15.4-2.5,15.4-11.2v-2.3H460c-3.6,4-8.6,6.6-16.7,6.6
			c-18.4,0-26.1-13.7-26.1-28.6c0-15.5,8.4-28.8,26.2-28.8c9,0,14.5,3.4,18,8.4h0.2v-7H482v48.6c0,19-11.1,30.7-34.9,30.7
			C435,388,425.8,385,420.7,381.3z M460.6,336c0-6.3-4-10.8-10.7-10.8c-6.5,0-10.7,4.5-10.7,10.8c0,6.4,4.1,10.9,10.7,10.9
			C456.6,346.9,460.6,342.4,460.6,336z"/>
		<path fill="#AD2CA5" d="M494,381.3l8.5-14.8c3.6,2.7,8.7,5,15.7,5c7.2,0,15.4-2.5,15.4-11.2v-2.3h-0.2c-3.6,4-8.6,6.6-16.7,6.6
			c-18.4,0-26.1-13.7-26.1-28.6c0-15.5,8.4-28.8,26.2-28.8c9,0,14.5,3.4,18,8.4h0.2v-7h20.4v48.6c0,19-11.1,30.7-34.9,30.7
			C508.4,388,499.1,385,494,381.3z M533.9,336c0-6.3-4-10.8-10.7-10.8c-6.5,0-10.7,4.5-10.7,10.8c0,6.4,4.1,10.9,10.7,10.9
			C529.9,346.9,533.9,342.4,533.9,336z"/>
	</g>
</g>
</svg>
