<?xml version="1.0" encoding="utf-8"?>
<!-- Generator: Adobe Illustrator 17.1.0, SVG Export Plug-In . SVG Version: 6.00 Build 0)  -->
<!DOCTYPE svg PUBLIC "-//W3C//DTD SVG 1.1//EN" "http://www.w3.org/Graphics/SVG/1.1/DTD/svg11.dtd">
<svg version="1.1" id="Layer_1" xmlns="http://www.w3.org/2000/svg" xmlns:xlink="http://www.w3.org/1999/xlink" x="0px" y="0px"
	 viewBox="0 0 47.7 103.8" enable-background="new 0 0 47.7 103.8" xml:space="preserve">
<linearGradient id="SVGID_1_" gradientUnits="userSpaceOnUse" x1="-257.4616" y1="231.9185" x2="-256.4615" y2="231.9185" gradientTransform="matrix(46.519 0 0 -46.519 11977.0869 10889.8262)">
	<stop  offset="0" style="stop-color:#231F20"/>
	<stop  offset="0.1333" style="stop-color:#231F20"/>
	<stop  offset="0.1536" style="stop-color:#242021"/>
	<stop  offset="1" style="stop-color:#48484A"/>
</linearGradient>
<path fill="url(#SVGID_1_)" d="M47.1,103.8c0,0-0.1-2.1-0.5-3c-0.4-1-1.7-2.1-1.7-2.1H2.7c0,0-1.3,1-1.7,2c-0.4,1-0.4,3.1-0.4,3.1
	H47.1z"/>
<linearGradient id="SVGID_2_" gradientUnits="userSpaceOnUse" x1="-257.5913" y1="231.8584" x2="-256.5913" y2="231.8584" gradientTransform="matrix(47.6567 0 0 -47.6567 12275.6143 11136.3975)">
	<stop  offset="0" style="stop-color:#231F20"/>
	<stop  offset="0.1333" style="stop-color:#231F20"/>
	<stop  offset="0.1536" style="stop-color:#242021"/>
	<stop  offset="1" style="stop-color:#48484A"/>
</linearGradient>
<path fill="url(#SVGID_2_)" d="M44.6,97.9c2-2.7,3.2-5.9,3-10c-0.3-4.2-2.5-8.8-4.8-12.3H5.4c-2,3.2-5,7.4-5.3,11.5
	c-0.3,4.1,0.9,8.1,3,10.8H44.6z"/>
<linearGradient id="SVGID_3_" gradientUnits="userSpaceOnUse" x1="-256.6601" y1="232.281" x2="-255.6601" y2="232.281" gradientTransform="matrix(40.4995 0 0 -40.4995 10398.501 9480.0625)">
	<stop  offset="0" style="stop-color:#231F20"/>
	<stop  offset="0.1333" style="stop-color:#231F20"/>
	<stop  offset="0.1536" style="stop-color:#242021"/>
	<stop  offset="1" style="stop-color:#48484A"/>
</linearGradient>
<path fill="url(#SVGID_3_)" d="M44.4,72.6c-0.4-1.6-1.8-2-2.3-2c-0.4,0-11.7,0-17.5,0c0,0-1.4,0-3.4,0c-5.8,0-14.4,0-14.8,0
	c-0.5,0-1.9,0.4-2.3,2c-0.3,1.3,1,2.3,1.5,2.3c0.3,0,11.5,0,17.4,0c5.8,0,19.7,0,20,0C43.5,74.9,44.8,73.9,44.4,72.6z"/>
<linearGradient id="SVGID_4_" gradientUnits="userSpaceOnUse" x1="-255.9288" y1="232.6219" x2="-254.9288" y2="232.6219" gradientTransform="matrix(36.2275 0 0 -36.2275 9277.0381 8462.2471)">
	<stop  offset="0" style="stop-color:#231F20"/>
	<stop  offset="0.1333" style="stop-color:#231F20"/>
	<stop  offset="0.1536" style="stop-color:#242021"/>
	<stop  offset="1" style="stop-color:#48484A"/>
</linearGradient>
<path fill="url(#SVGID_4_)" d="M38.1,37.8c0.4-0.1,4-2,3.8-5.1c-0.3-3.9-4-5.3-4.4-5.3c-0.2,0-3.9,0-7.6,0l0-0.1
	c4.8-2.3,8.1-7.3,8.1-13C38,6.4,31.6,0,23.8,0C15.9,0,9.6,6.4,9.6,14.4c0,5.7,3.3,10.6,8.1,13l0,0.1c-3.7,0-7.5,0-7.7,0
	c-0.4,0-4,1.4-4.2,5.3c-0.2,3.1,3.3,5,3.7,5.1c0.1,0,3.7,0,7.4,0c-1.4,8.7-5.8,23.3-9.5,32.1h34.3c-4.1-7.7-9.4-23.4-10.8-32.1
	C34.5,37.8,38,37.8,38.1,37.8z"/>
</svg>
